HIERARCHY
ROOT Hips
{
	OFFSET 0.000000 100.481300 0.000000
	CHANNELS 6 Xposition Yposition Zposition Xrotation Yrotation Zrotation
	JOINT Spine
	{
		OFFSET -0.279200 12.230698 -2.892100
		CHANNELS 3 Xrotation Yrotation Zrotation
		JOINT Spine1
		{
			OFFSET -0.325700 14.269203 -3.374200
			CHANNELS 3 Xrotation Yrotation Zrotation
			JOINT Spine2
			{
				OFFSET -0.372300 16.307602 -0.352600
				CHANNELS 3 Xrotation Yrotation Zrotation
				JOINT Neck
				{
					OFFSET -0.418800 17.814194 8.416900
					CHANNELS 3 Xrotation Yrotation Zrotation
					JOINT Head
					{
						OFFSET 0.000000 7.031097 3.806800
						CHANNELS 3 Xrotation Yrotation Zrotation
						JOINT HeadTop_End
						{
							OFFSET 0.000000 24.646606 12.978600
							CHANNELS 3 Xrotation Yrotation Zrotation
							End Site
							{
								OFFSET 0.000000 27.854965 0.000000
							}
						}
					}
				}
				JOINT LeftShoulder
				{
					OFFSET 16.952999 14.495407 -7.737500
					CHANNELS 3 Xrotation Yrotation Zrotation
					JOINT LeftArm
					{
						OFFSET 9.308998 -2.777710 0.208600
						CHANNELS 3 Xrotation Yrotation Zrotation
						JOINT LeftForeArm
						{
							OFFSET 29.972298 0.000000 0.000000
							CHANNELS 3 Xrotation Yrotation Zrotation
							JOINT LeftHand
							{
								OFFSET 26.026505 0.000000 0.000000
								CHANNELS 3 Xrotation Yrotation Zrotation
								JOINT LeftHandThumb1
								{
									OFFSET 12.240501 -7.147949 9.207150
									CHANNELS 3 Xrotation Yrotation Zrotation
									JOINT LeftHandThumb2
									{
										OFFSET 4.138618 -2.389435 2.389433
										CHANNELS 3 Xrotation Yrotation Zrotation
										JOINT LeftHandThumb3
										{
											OFFSET 2.726913 -1.574387 1.574386
											CHANNELS 3 Xrotation Yrotation Zrotation
											JOINT LeftHandThumb4
											{
												OFFSET 3.941010 -2.275345 2.275342
												CHANNELS 3 Xrotation Yrotation Zrotation
												End Site
												{
													OFFSET -0.005798 5.087799 0.009903
												}
											}
										}
									}
								}
								JOINT LeftHandIndex1
								{
									OFFSET 24.424698 -1.985611 5.953459
									CHANNELS 3 Xrotation Yrotation Zrotation
									JOINT LeftHandIndex2
									{
										OFFSET 6.426697 0.000000 0.000000
										CHANNELS 3 Xrotation Yrotation Zrotation
										JOINT LeftHandIndex3
										{
											OFFSET 5.337898 0.000000 0.000000
											CHANNELS 3 Xrotation Yrotation Zrotation
											JOINT LeftHandIndex4
											{
												OFFSET 4.409401 0.000000 0.000000
												CHANNELS 3 Xrotation Yrotation Zrotation
												End Site
												{
													OFFSET 0.000000 4.409363 0.014373
												}
											}
										}
									}
								}
								JOINT LeftHandMiddle1
								{
									OFFSET 23.810104 0.000000 0.000000
									CHANNELS 3 Xrotation Yrotation Zrotation
									JOINT LeftHandMiddle2
									{
										OFFSET 7.176498 0.000000 0.000000
										CHANNELS 3 Xrotation Yrotation Zrotation
										JOINT LeftHandMiddle3
										{
											OFFSET 6.774902 0.000000 0.000000
											CHANNELS 3 Xrotation Yrotation Zrotation
											JOINT LeftHandMiddle4
											{
												OFFSET 5.403328 0.000000 0.000000
												CHANNELS 3 Xrotation Yrotation Zrotation
												End Site
												{
													OFFSET -0.027702 5.403244 0.017414
												}
											}
										}
									}
								}
								JOINT LeftHandRing1
								{
									OFFSET 22.908401 -0.839279 -6.020567
									CHANNELS 3 Xrotation Yrotation Zrotation
									JOINT LeftHandRing2
									{
										OFFSET 6.337502 0.000000 0.000000
										CHANNELS 3 Xrotation Yrotation Zrotation
										JOINT LeftHandRing3
										{
											OFFSET 5.779297 0.000000 0.000000
											CHANNELS 3 Xrotation Yrotation Zrotation
											JOINT LeftHandRing4
											{
												OFFSET 4.965698 0.000000 0.000000
												CHANNELS 3 Xrotation Yrotation Zrotation
												End Site
												{
													OFFSET 0.000000 4.965668 0.016186
												}
											}
										}
									}
								}
								JOINT LeftHandPinky1
								{
									OFFSET 20.037003 -1.530319 -10.950146
									CHANNELS 3 Xrotation Yrotation Zrotation
									JOINT LeftHandPinky2
									{
										OFFSET 5.254700 0.000000 0.000000
										CHANNELS 3 Xrotation Yrotation Zrotation
										JOINT LeftHandPinky3
										{
											OFFSET 4.810204 0.000000 0.000000
											CHANNELS 3 Xrotation Yrotation Zrotation
											JOINT LeftHandPinky4
											{
												OFFSET 3.647202 0.000000 0.000000
												CHANNELS 3 Xrotation Yrotation Zrotation
												End Site
												{
													OFFSET 0.000000 3.647186 0.011889
												}
											}
										}
									}
								}
							}
						}
					}
				}
				JOINT RightShoulder
				{
					OFFSET -15.141001 14.495407 -7.737500
					CHANNELS 3 Xrotation Yrotation Zrotation
					JOINT RightArm
					{
						OFFSET -9.308998 -2.777710 0.208500
						CHANNELS 3 Xrotation Yrotation Zrotation
						JOINT RightForeArm
						{
							OFFSET -29.972300 0.000000 0.000000
							CHANNELS 3 Xrotation Yrotation Zrotation
							JOINT RightHand
							{
								OFFSET -26.026505 0.000000 0.000000
								CHANNELS 3 Xrotation Yrotation Zrotation
								JOINT RightHandThumb1
								{
									OFFSET -12.240601 -7.148026 9.207092
									CHANNELS 3 Xrotation Yrotation Zrotation
									JOINT RightHandThumb2
									{
										OFFSET -4.138618 -2.389435 2.389433
										CHANNELS 3 Xrotation Yrotation Zrotation
										JOINT RightHandThumb3
										{
											OFFSET -2.726974 -1.574417 1.574421
											CHANNELS 3 Xrotation Yrotation Zrotation
											JOINT RightHandThumb4
											{
												OFFSET -3.941010 -2.275345 2.275343
												CHANNELS 3 Xrotation Yrotation Zrotation
												End Site
												{
													OFFSET 0.005814 5.087799 0.009927
												}
											}
										}
									}
								}
								JOINT RightHandIndex1
								{
									OFFSET -24.424698 -1.985657 5.953444
									CHANNELS 3 Xrotation Yrotation Zrotation
									JOINT RightHandIndex2
									{
										OFFSET -6.426697 0.000000 0.000000
										CHANNELS 3 Xrotation Yrotation Zrotation
										JOINT RightHandIndex3
										{
											OFFSET -5.337898 0.000000 0.000000
											CHANNELS 3 Xrotation Yrotation Zrotation
											JOINT RightHandIndex4
											{
												OFFSET -4.409401 0.000000 0.000000
												CHANNELS 3 Xrotation Yrotation Zrotation
												End Site
												{
													OFFSET 0.000000 4.409363 0.014408
												}
											}
										}
									}
								}
								JOINT RightHandMiddle1
								{
									OFFSET -23.810097 0.000000 0.000000
									CHANNELS 3 Xrotation Yrotation Zrotation
									JOINT RightHandMiddle2
									{
										OFFSET -7.176498 0.000000 0.000000
										CHANNELS 3 Xrotation Yrotation Zrotation
										JOINT RightHandMiddle3
										{
											OFFSET -6.774902 0.000000 0.000000
											CHANNELS 3 Xrotation Yrotation Zrotation
											JOINT RightHandMiddle4
											{
												OFFSET -5.403328 0.000000 0.000000
												CHANNELS 3 Xrotation Yrotation Zrotation
												End Site
												{
													OFFSET 0.027702 5.403244 0.017457
												}
											}
										}
									}
								}
								JOINT RightHandRing1
								{
									OFFSET -22.908302 -0.839325 -6.020576
									CHANNELS 3 Xrotation Yrotation Zrotation
									JOINT RightHandRing2
									{
										OFFSET -6.337502 0.000000 0.000000
										CHANNELS 3 Xrotation Yrotation Zrotation
										JOINT RightHandRing3
										{
											OFFSET -5.779297 0.000000 0.000000
											CHANNELS 3 Xrotation Yrotation Zrotation
											JOINT RightHandRing4
											{
												OFFSET -4.965698 0.000000 0.000000
												CHANNELS 3 Xrotation Yrotation Zrotation
												End Site
												{
													OFFSET 0.000000 4.965668 0.016226
												}
											}
										}
									}
								}
								JOINT RightHandPinky1
								{
									OFFSET -20.037003 -1.530334 -10.950259
									CHANNELS 3 Xrotation Yrotation Zrotation
									JOINT RightHandPinky2
									{
										OFFSET -5.254700 0.000000 0.000000
										CHANNELS 3 Xrotation Yrotation Zrotation
										JOINT RightHandPinky3
										{
											OFFSET -4.810204 0.000000 0.000000
											CHANNELS 3 Xrotation Yrotation Zrotation
											JOINT RightHandPinky4
											{
												OFFSET -3.647202 0.000000 0.000000
												CHANNELS 3 Xrotation Yrotation Zrotation
												End Site
												{
													OFFSET 0.000000 3.647186 0.011917
												}
											}
										}
									}
								}
							}
						}
					}
				}
			}
		}
	}
	JOINT LeftUpLeg
	{
		OFFSET 15.427100 -6.655098 0.678600
		CHANNELS 3 Xrotation Yrotation Zrotation
		JOINT LeftLeg
		{
			OFFSET 4.081073 -39.591068 13.024000
			CHANNELS 3 Xrotation Yrotation Zrotation
			JOINT LeftFoot
			{
				OFFSET -4.081074 -37.707932 -15.979700
				CHANNELS 3 Xrotation Yrotation Zrotation
				JOINT LeftToeBase
				{
					OFFSET 5.346399 -15.068900 20.645000
					CHANNELS 3 Xrotation Yrotation Zrotation
					JOINT LeftToe_End
					{
						OFFSET 2.754700 0.931300 11.300900
						CHANNELS 3 Xrotation Yrotation Zrotation
						End Site
						{
							OFFSET 0.000000 11.669021 0.000000
						}
					}
				}
			}
		}
	}
	JOINT RightUpLeg
	{
		OFFSET -15.569500 -6.655098 0.678600
		CHANNELS 3 Xrotation Yrotation Zrotation
		JOINT RightLeg
		{
			OFFSET -4.081825 -39.591045 13.023800
			CHANNELS 3 Xrotation Yrotation Zrotation
			JOINT RightFoot
			{
				OFFSET 4.081824 -37.707954 -15.979600
				CHANNELS 3 Xrotation Yrotation Zrotation
				JOINT RightToeBase
				{
					OFFSET -5.346400 -15.068900 20.645000
					CHANNELS 3 Xrotation Yrotation Zrotation
					JOINT RightToe_End
					{
						OFFSET -2.754700 0.931300 11.300900
						CHANNELS 3 Xrotation Yrotation Zrotation
						End Site
						{
							OFFSET 0.000000 11.669021 0.000000
						}
					}
				}
			}
		}
	}
}
MOTION
Frames: 4
Frame Time: 0.033333
-4.843518 29.992966 24.997124 -3.871538 -12.870871 -5.986312 18.032931 -8.256231 -4.031447 36.343785 -8.450467 -3.661550 36.343781 -8.450471 -3.661552 14.198445 2.576484 0.062918 -29.136334 16.640316 -3.237619 -0.000000 -0.000001 -0.000001 -1.239423 -3.550210 0.270987 -56.212607 -25.703271 -45.098868 0.626362 -28.542963 -0.436401 55.562247 11.840954 65.697855 -14.744172 -11.651714 23.146302 2.415254 7.054190 2.073766 0.000002 -0.000003 -0.000004 0.000001 -0.000002 -0.000002 -1.199936 -5.026167 8.909304 0.012011 0.165395 -6.188566 0.000000 0.000013 -0.000002 -0.000000 0.000001 0.000000 1.258683 1.150522 8.146097 -0.076139 -0.760188 -9.419811 -0.000001 -0.000008 0.000001 0.000000 0.000001 -0.000000 -0.375477 6.553342 5.177969 -0.046236 -0.749830 -8.757658 -0.000000 -0.000007 0.000003 -0.000000 -0.000004 -0.000002 0.597741 9.609964 3.238618 -0.003779 -0.732860 -5.849878 -0.000001 0.000001 -0.000001 0.000000 0.000000 0.000000 -9.338759 -2.914866 1.933356 -46.149987 -10.665553 33.474825 -50.581581 88.696236 50.922704 -11.356446 -2.687621 -2.314007 -8.619762 1.500121 -18.153902 -2.371269 -1.233081 0.315038 0.000006 -0.000015 -0.000002 0.000001 0.000001 -0.000001 -7.753329 1.167047 9.904576 0.145577 -0.766127 18.972526 -0.000003 -0.000002 -0.000001 -0.000001 0.000002 -0.000004 -1.927229 1.904614 8.812436 -0.219519 1.185161 19.704807 -0.000000 0.000003 0.000002 -0.000002 -0.000001 0.000002 1.714772 -4.685104 7.230454 -0.440999 1.926079 18.039108 0.000002 0.000000 -0.000002 -0.000001 -0.000002 -0.000001 6.263164 -7.461137 16.011533 -0.377860 2.903032 16.392621 -0.000002 -0.000001 -0.000002 0.000000 0.000001 -0.000001 1.195421 -9.246200 137.571403 43.156721 -49.388388 -95.193070 68.471663 -5.210577 42.582206 -64.378064 20.837838 -31.439504 -0.000000 -0.000000 0.000001 -77.537571 50.803036 -32.324021 113.338896 21.424049 16.194431 -15.856668 9.706954 32.267245 -6.068036 -0.093835 -0.036232 0.000000 -0.000001 -0.000000 
-5.425757 29.839935 25.180780 -2.499536 -11.576468 -4.697115 18.329948 -7.791171 -3.505364 36.899124 -7.951426 -3.069448 36.899120 -7.951421 -3.069456 15.433757 2.153831 -1.026952 -24.984043 14.712019 -3.936880 -0.000000 0.000000 0.000000 -1.258949 -4.346509 -0.044502 -55.016938 -28.390648 -44.021259 0.563731 -31.797990 -0.676865 53.150507 12.519509 65.109550 -14.125728 -11.084162 22.592442 2.339720 6.781473 2.151773 0.000001 -0.000003 -0.000003 -0.000000 0.000001 -0.000001 -1.287302 -5.216636 6.311639 0.007302 0.130906 -4.316586 -0.000000 0.000014 -0.000002 -0.000000 0.000001 0.000000 1.378832 1.279513 6.211663 -0.056051 -0.640258 -7.884308 -0.000002 -0.000006 0.000002 0.000000 -0.000001 0.000001 -0.506100 6.402558 3.194995 -0.029914 -0.622768 -7.299461 -0.000001 -0.000007 0.000002 -0.000000 -0.000000 -0.000001 0.148671 9.353669 2.501690 0.005427 -0.616263 -4.944568 -0.000001 0.000001 -0.000001 -0.000000 -0.000000 -0.000001 -10.031914 -6.602284 1.694199 -46.930701 -14.888694 37.600724 11.166665 95.007788 -10.931724 -7.454523 -6.848128 0.963086 -8.557840 1.444544 -17.662290 -2.408244 -1.204772 0.041614 0.000004 -0.000018 -0.000002 -0.000000 0.000000 -0.000001 -8.638030 1.857865 16.775279 0.230577 -0.956904 24.429797 0.000001 -0.000001 0.000001 0.000004 0.000001 0.000000 -2.591816 2.710311 15.408246 -0.375397 1.552386 26.201898 0.000002 0.000003 0.000003 -0.000000 0.000002 0.000000 1.606601 -3.392436 13.659934 -0.691469 2.573537 24.448047 -0.000004 0.000001 0.000001 -0.000001 0.000001 0.000002 5.540969 -3.876370 22.159828 -0.810629 4.079785 23.529126 0.000002 0.000002 0.000001 0.000003 0.000001 -0.000002 -1.223294 -11.344447 137.284439 43.145800 -49.675204 -95.683717 68.234280 -2.731115 42.758688 -57.693283 19.092684 -36.276634 0.000002 -0.000000 0.000002 -73.555325 53.395677 -38.559389 113.227215 23.916162 18.218464 -16.914967 9.752782 32.007902 -6.110666 -0.093895 -0.038319 -0.000000 -0.000001 -0.000000 
-5.915334 29.686317 25.345484 -1.361491 -10.467505 -3.652514 18.492814 -7.384199 -3.009703 37.198641 -7.496405 -2.459087 37.198668 -7.496414 -2.459083 16.309739 1.741390 -2.357141 -20.321232 12.770282 -4.559214 -0.000000 0.000000 -0.000001 -1.320798 -5.346188 -1.227919 -52.665065 -31.598825 -41.575908 0.453847 -34.500679 -0.902267 50.401858 12.725750 63.782519 -14.087452 -10.966051 22.731669 2.324818 6.727883 2.167109 0.000004 -0.000004 -0.000005 -0.000002 -0.000000 0.000002 -1.156542 -5.531337 6.349436 0.006297 0.122717 -3.867350 0.000000 0.000013 -0.000002 0.000000 -0.000001 -0.000000 1.417419 1.456327 6.712051 -0.050941 -0.605038 -7.439539 -0.000002 -0.000005 0.000002 0.000000 -0.000003 -0.000000 -0.548575 6.459677 4.042463 -0.027469 -0.600706 -7.048400 -0.000001 -0.000005 0.000003 0.000000 0.000000 -0.000000 0.099110 9.458447 3.970216 0.007712 -0.585430 -4.699506 -0.000001 0.000000 -0.000000 -0.000000 0.000000 -0.000001 -10.757228 -9.974836 1.454104 -46.543477 -17.237150 39.581161 7.325439 97.412165 -7.125443 -6.218414 -8.658572 2.557508 -8.491838 1.384068 -17.138736 -2.459817 -1.180338 -0.248528 0.000004 -0.000018 -0.000002 -0.000000 -0.000000 -0.000000 -9.892021 2.347511 23.638045 0.330878 -1.130739 29.777996 0.000005 0.000000 -0.000001 0.000001 -0.000001 0.000002 -3.395513 3.177236 18.425689 -0.458428 1.717217 29.101595 -0.000007 0.000001 0.000002 0.000006 0.000000 0.000000 1.387784 -2.586633 14.840353 -0.747028 2.682969 25.624915 -0.000001 -0.000000 -0.000000 -0.000003 0.000000 0.000001 5.615945 -1.846912 20.350402 0.513636 3.776237 22.751522 -0.000001 0.000000 -0.000000 -0.000001 -0.000000 -0.000002 -3.216279 -13.049613 136.870229 43.253911 -49.912256 -95.951126 67.874547 -0.715512 42.940491 -52.666233 17.066237 -39.302271 -0.000001 0.000000 0.000000 -68.651392 55.565880 -45.639242 112.747476 26.445389 20.469408 -17.756504 10.093348 31.692532 -6.129761 -0.094098 -0.039259 0.000000 0.000001 0.000000 
-6.306257 29.554543 25.499319 -0.354491 -9.536994 -2.970881 18.536643 -7.100547 -2.582639 37.282041 -7.221388 -1.812670 37.282045 -7.221387 -1.812676 16.876202 1.441702 -3.635413 -16.382844 11.414698 -5.055378 -0.000000 0.000000 0.000000 -1.360716 -5.692408 -1.965846 -50.102026 -34.514725 -39.500606 0.387459 -35.948074 -1.024615 47.470822 13.637409 64.611916 -14.267113 -11.066999 23.280112 2.321861 6.717058 2.170196 0.000001 -0.000004 -0.000006 0.000001 -0.000001 0.000000 -1.088208 -5.848624 6.874080 0.005905 0.119884 -3.701236 0.000000 0.000014 -0.000002 0.000000 0.000004 0.000000 1.413509 1.570727 7.376508 -0.049109 -0.591426 -7.269450 -0.000001 -0.000009 0.000003 -0.000001 0.000000 0.000001 -0.552786 6.535694 5.032786 -0.027163 -0.597678 -7.014332 -0.000000 -0.000006 0.000003 0.000000 -0.000002 -0.000001 0.194676 9.691759 4.941065 0.009011 -0.569399 -4.565942 -0.000002 -0.000001 0.000000 0.000000 -0.000000 -0.000000 -11.322328 -12.096306 1.283145 -45.594921 -17.870708 39.258722 6.179133 98.919970 -5.982576 -7.039427 -10.591764 2.889883 -8.433743 1.329751 -16.678460 -2.515492 -1.163724 -0.502321 0.000006 -0.000019 -0.000003 -0.000000 0.000002 -0.000000 -11.181104 2.525843 29.756416 0.433536 -1.274712 34.563561 0.000001 0.000001 0.000001 0.000001 0.000001 -0.000000 -4.146684 3.553058 21.553089 -0.553725 1.883827 32.116147 -0.000002 0.000003 0.000000 0.000000 0.000000 -0.000001 1.146515 -1.808911 16.617681 -0.834010 2.849598 27.402289 -0.000003 0.000000 -0.000001 -0.000001 -0.000001 -0.000001 5.371706 0.202645 19.819735 1.248093 3.743456 23.179647 0.000004 0.000000 0.000001 0.000002 0.000001 -0.000003 -4.790716 -14.496021 136.730647 43.279511 -50.050492 -96.170252 67.655660 0.717407 42.978699 -49.265028 15.405188 -40.880373 -0.000002 0.000001 -0.000001 -63.430020 56.793542 -52.764195 112.042860 28.711673 22.691823 -18.546195 10.617737 31.291200 -6.128175 -0.094429 -0.039167 0.000000 -0.000002 -0.000000 
